<?xml version="1.0" encoding="UTF-8"?><svg id="Layer_1" xmlns="http://www.w3.org/2000/svg" viewBox="0 0 866.93 337.31"><defs><style>.cls-1{fill:#fff;stroke-width:0px;}</style></defs><path class="cls-1" d="M464.96,27.17c.46.06.85.09,1.16.09h.82c2.13,0,3.85-.63,5.17-1.9,1.32-1.26,1.98-2.9,1.98-4.92s-.62-3.54-1.85-4.74c-1.24-1.21-2.83-1.81-4.79-1.81-2.07,0-3.74.69-5,2.07-1.27,1.38-1.9,3.16-1.9,5.35h-15.61c.4-3.39,1.25-6.41,2.54-9.06,1.29-2.64,2.95-4.87,4.96-6.68,2.01-1.81,4.37-3.19,7.07-4.14,2.7-.95,5.69-1.42,8.97-1.42s6.14.45,8.75,1.34c2.62.89,4.86,2.16,6.73,3.8,1.87,1.64,3.31,3.62,4.31,5.95,1.01,2.33,1.51,4.93,1.51,7.8,0,3.11-.59,5.65-1.77,7.63-1.18,1.98-2.86,3.69-5.05,5.13,3.33,1.04,5.94,2.89,7.81,5.56,1.87,2.67,2.8,5.97,2.8,9.88,0,3.22-.63,6.15-1.9,8.8-1.27,2.65-3.03,4.92-5.3,6.81-2.27,1.9-4.97,3.36-8.11,4.4-3.13,1.04-6.57,1.55-10.31,1.55-5,0-9.52-.98-13.54-2.93-4.03-1.95-7.24-5.06-9.66-9.32-1.09-1.9-1.83-3.8-2.2-5.69-.37-1.9-.56-3.82-.56-5.78h16.73c.11,3.05,1,5.36,2.67,6.94,1.67,1.58,3.91,2.37,6.73,2.37,2.99,0,5.17-.8,6.55-2.41,1.38-1.61,2.07-3.59,2.07-5.95,0-2.82-.83-4.94-2.5-6.38-1.67-1.44-3.65-2.16-5.95-2.16-.58,0-1.12.04-1.64.13-.52.09-1.09.19-1.72.3v-10.61Z"/><path class="cls-1" d="M536.46,16.13h-20.1v10.87h18.98v14.32h-18.98v11.21h20.1v14.32h-37V1.81h37v14.32Z"/><path class="cls-1" d="M571.48,52.53h27.26v14.32h-55.63l30.79-50.72h-25.62V1.81h53.82l-30.62,50.72Z"/><path class="cls-1" d="M622.8,1.81l11.21,42,13.8-42h13.45l13.8,42,11.21-42h17.68l-19.41,65.03h-17.25l-12.77-37.69-12.76,37.69h-17.25L605.12,1.81h17.68Z"/><path class="cls-1" d="M742,55.54h-24.15l-3.88,11.3h-18.03L720.69,1.81h18.46l24.75,65.03h-18.03l-3.88-11.3ZM737.51,42.69l-7.59-21.65-7.59,21.65h15.18Z"/><path class="cls-1" d="M456.78,126.69v26.41h-9.81v-65.02h11.12c5.45,0,9.56.38,12.34,1.14,2.81.76,5.28,2.19,7.41,4.3,3.73,3.65,5.6,8.25,5.6,13.81,0,5.95-1.99,10.67-5.98,14.15-3.99,3.48-9.36,5.22-16.13,5.22h-4.55ZM456.78,117.59h3.66c9.01,0,13.52-3.47,13.52-10.4s-4.65-10.07-13.94-10.07h-3.24v20.47Z"/><path class="cls-1" d="M526.98,137.3h-27.84l-7.24,15.79h-10.57l32.18-69.11,31.04,69.11h-10.74l-6.82-15.79ZM522.98,128.08l-9.64-22.11-10.11,22.11h19.75Z"/><path class="cls-1" d="M562.48,88.07v55.8h19.12v9.22h-28.93v-65.02h9.81Z"/><path class="cls-1" d="M626.79,97.29h-26.07v15.63h25.31v9.22h-25.31v21.73h26.07v9.22h-35.88v-65.02h35.88v9.22Z"/><path class="cls-1" d="M676.45,97.76l-7.96,4.72c-1.49-2.58-2.91-4.27-4.25-5.05-1.4-.9-3.21-1.35-5.43-1.35-2.72,0-4.98.77-6.78,2.32-1.8,1.52-2.7,3.43-2.7,5.73,0,3.17,2.36,5.73,7.07,7.67l6.49,2.65c5.28,2.13,9.14,4.74,11.58,7.81s3.66,6.84,3.66,11.31c0,5.98-1.99,10.92-5.98,14.82-4.02,3.93-9,5.9-14.95,5.9-5.64,0-10.3-1.67-13.98-5.01-3.62-3.34-5.88-8.04-6.78-14.11l9.94-2.19c.45,3.82,1.24,6.46,2.36,7.92,2.02,2.81,4.97,4.21,8.84,4.21,3.06,0,5.6-1.02,7.62-3.07,2.02-2.05,3.03-4.65,3.03-7.79,0-1.26-.18-2.42-.53-3.47-.35-1.05-.9-2.02-1.64-2.91-.74-.88-1.71-1.71-2.88-2.48s-2.58-1.51-4.21-2.21l-6.27-2.61c-8.9-3.76-13.35-9.27-13.35-16.51,0-4.89,1.87-8.97,5.6-12.26,3.73-3.31,8.38-4.97,13.94-4.97,7.5,0,13.35,3.65,17.56,10.95Z"/><path class="cls-1" d="M709.13,97.29v55.8h-9.81v-55.8h-14.95v-9.22h39.67v9.22h-14.91Z"/><path class="cls-1" d="M742.61,88.07v65.02h-9.81v-65.02h9.81Z"/><path class="cls-1" d="M758.23,153.09v-69.45l47.42,49.61v-45.19h9.81v68.98l-47.42-49.48v45.53h-9.81Z"/><path class="cls-1" d="M866.93,97.29h-26.07v15.63h25.31v9.22h-25.31v21.73h26.07v9.22h-35.88v-65.02h35.88v9.22Z"/><path class="cls-1" d="M456.78,174.32v55.8h19.12v9.22h-28.93v-65.02h9.81Z"/><path class="cls-1" d="M521.09,183.54h-26.07v15.63h25.31v9.22h-25.31v21.73h26.07v9.22h-35.88v-65.02h35.88v9.22Z"/><path class="cls-1" d="M567.41,205.48h26.87v2.15c0,4.89-.58,9.21-1.73,12.97-1.12,3.48-3.02,6.74-5.69,9.77-6.04,6.8-13.72,10.19-23.04,10.19s-16.89-3.28-23.37-9.85c-6.49-6.6-9.73-14.51-9.73-23.75s3.3-17.44,9.9-24.01c6.6-6.6,14.63-9.9,24.09-9.9,5.08,0,9.83,1.04,14.23,3.12,4.21,2.08,8.35,5.45,12.42,10.11l-6.99,6.7c-5.33-7.1-11.83-10.65-19.5-10.65-6.88,0-12.65,2.37-17.31,7.12-4.66,4.66-6.99,10.5-6.99,17.52s2.6,13.21,7.79,17.9c4.86,4.35,10.12,6.53,15.79,6.53,4.83,0,9.17-1.63,13.01-4.89,3.85-3.28,5.99-7.21,6.44-11.79h-16.21v-9.22Z"/><path class="cls-1" d="M641.87,223.55h-27.84l-7.24,15.79h-10.57l32.18-69.11,31.04,69.11h-10.74l-6.82-15.79ZM637.87,214.33l-9.64-22.11-10.11,22.11h19.75Z"/><path class="cls-1" d="M677.37,174.32v55.8h19.12v9.22h-28.93v-65.02h9.81Z"/><path class="cls-1" d="M479.44,269.79h-22.66v15.63h21.86v9.22h-21.86v30.95h-9.81v-65.02h32.47v9.22Z"/><path class="cls-1" d="M500.62,260.57v39.17c0,5.59.91,9.67,2.74,12.26,2.72,3.73,6.56,5.6,11.5,5.6s8.82-1.87,11.54-5.6c1.82-2.5,2.74-6.58,2.74-12.26v-39.17h9.81v41.86c0,6.85-2.13,12.49-6.4,16.93-4.8,4.94-10.7,7.41-17.69,7.41s-12.87-2.47-17.65-7.41c-4.27-4.44-6.4-10.08-6.4-16.93v-41.86h9.81Z"/><path class="cls-1" d="M554.53,325.59v-69.45l47.42,49.61v-45.19h9.81v68.98l-47.42-49.48v45.53h-9.81Z"/><path class="cls-1" d="M627.34,325.59v-65.02h13.64c6.54,0,11.71.65,15.5,1.94,4.07,1.26,7.76,3.41,11.08,6.44,6.71,6.12,10.07,14.16,10.07,24.13s-3.5,18.08-10.49,24.26c-3.51,3.09-7.19,5.24-11.03,6.44-3.59,1.21-8.69,1.81-15.29,1.81h-13.48ZM637.15,316.37h4.42c4.41,0,8.07-.46,10.99-1.39,2.92-.98,5.56-2.54,7.92-4.67,4.83-4.41,7.24-10.15,7.24-17.22s-2.39-12.91-7.16-17.35c-4.3-3.96-10.63-5.94-18.99-5.94h-4.42v46.58Z"/><path class="cls-1" d="M369.28,189.94c-144.34,136.74-295.04,91.31-295.26,65.49h0c0-14.4,50.8-25.81,108.11-36.4l7.6-45.62c55.41-14.67,87.26-5.93,104.65,5.48l-70.36,11.14c-11.41,1.9-16.03,2.17-18.47-5.98l-1.63-5.16-4.35,1.09,4.07,19.56c11.95,57.86,98.6,35.04,98.6-16.57,0-25.54-16.57-42.65-32.6-50.25,26.08-20.37,37.76-42.65,37.76-64.11h0c0-81.02-121.3-62.03-214.52-62.03L0,147.15l5.1,4.86C149.43,15.27,300.14,60.7,300.36,86.52h0c0,14.4-50.8,25.81-108.11,36.4l-7.6,45.62c-55.41,14.67-87.26,5.93-104.65-5.48l70.35-11.14c11.41-1.9,16.03-2.17,18.47,5.98l1.63,5.16,4.35-1.09-4.07-19.56c-11.95-57.86-98.6-35.04-98.6,16.57,0,25.54,16.57,42.65,32.6,50.25-26.08,20.37-37.76,42.65-37.76,64.11h0c0,81.02,121.3,62.03,214.52,62.03l92.9-140.59-5.1-4.86Z"/></svg>